<svg id="圖層_1" data-name="圖層 1" xmlns="http://www.w3.org/2000/svg" xmlns:xlink="http://www.w3.org/1999/xlink" viewBox="0 0 242.83 277.47"><defs><style>.cls-1{fill:#2a2b2b;stroke:#2a2b2b;}.cls-1,.cls-2,.cls-3,.cls-4{stroke-miterlimit:10;}.cls-2,.cls-3,.cls-4{stroke:#231815;}.cls-2{fill:url(#未命名漸層_72);}.cls-3{fill:url(#未命名漸層_72-2);}.cls-4{fill:url(#未命名漸層_84);}.cls-5{fill:url(#未命名漸層_139);}.cls-6{fill:url(#未命名漸層_139-2);}.cls-7{fill:#fff;}.cls-8{fill:url(#未命名漸層_139-3);}</style><linearGradient id="未命名漸層_72" x1="116.33" y1="63.15" x2="116.33" y2="63.15" gradientUnits="userSpaceOnUse"><stop offset="0" stop-color="#fff"/><stop offset="1" stop-color="#09348b"/></linearGradient><linearGradient id="未命名漸層_72-2" x1="116.33" y1="67.87" x2="116.33" y2="67.87" xlink:href="#未命名漸層_72"/><linearGradient id="未命名漸層_84" x1="50.04" y1="108.53" x2="50.04" y2="108.53" gradientUnits="userSpaceOnUse"><stop offset="0" stop-color="#fff"/><stop offset="0" stop-color="#ededf6"/><stop offset="0.32" stop-color="#585ca2"/><stop offset="1" stop-color="#09348b"/></linearGradient><linearGradient id="未命名漸層_139" x1="207.92" y1="104.59" x2="32.41" y2="168.47" gradientUnits="userSpaceOnUse"><stop offset="0" stop-color="#fff"/><stop offset="0" stop-color="#172a88"/><stop offset="0.41" stop-color="#6fa8db"/><stop offset="1" stop-color="#09348b"/></linearGradient><linearGradient id="未命名漸層_139-2" x1="195.71" y1="205.93" x2="38.35" y2="263.21" xlink:href="#未命名漸層_139"/><linearGradient id="未命名漸層_139-3" x1="140.21" y1="234.72" x2="116.17" y2="339.73" gradientTransform="matrix(0.45, 0.77, -0.9, 0.52, 386.77, -107)" xlink:href="#未命名漸層_139"/></defs><title>CHS</title><polygon class="cls-1" points="129.13 78.59 142.77 65.42 86.4 6.39 72.76 19.57 129.13 78.59"/><polygon class="cls-1" points="76.88 23.88 83.19 17.79 71.41 0.77 62.78 9.12 76.88 23.88"/><polygon class="cls-1" points="145.09 103.01 149.97 98.38 124.89 72.64 120 77.27 145.09 103.01"/><polygon class="cls-1" points="129.13 78.59 115.49 91.77 59.12 32.75 72.76 19.57 129.13 78.59"/><polygon class="cls-1" points="76.88 23.88 70.57 29.98 54.14 17.46 62.78 9.12 76.88 23.88"/><polygon class="cls-1" points="145.09 103.01 140.2 107.64 115.11 81.9 120 77.27 145.09 103.01"/><polygon class="cls-1" points="150.22 81.59 153.72 76.22 131.98 61.93 128.47 67.31 150.22 81.59"/><polygon class="cls-1" points="150.22 81.59 146.72 86.97 124.97 72.69 128.47 67.31 150.22 81.59"/><path class="cls-2" d="M116.33,63.15" transform="translate(-30.96 -13.67)"/><path class="cls-3" d="M116.33,67.87" transform="translate(-30.96 -13.67)"/><path class="cls-4" d="M50,108.53" transform="translate(-30.96 -13.67)"/><path class="cls-5" d="M122.46,70S.93,120.87,38,180.58s189.56-22,189.56-22l-9.35-13.42S86.72,215.16,65,167.73s69.57-85.18,69.57-85.18Z" transform="translate(-30.96 -13.67)"/><path class="cls-6" d="M139.12,206s10-62.55-48.31-39.47,36,64.06,36,64.06,64.28,32.18,30.55,36.09-53.45-2.69-56.51-16.86c-2.5-11.59,3.16-23.52,3.16-23.52L88.77,214.75S25.62,270.55,48,282.68s135.38,11.56,158.91-3.93c42.9-28.23-72.31-68.68-95.46-77.05-22.1-8-16.68-16.07-1-21,10.06-3.15,6.26,16.42,5.78,18.8Z" transform="translate(-30.96 -13.67)"/><circle class="cls-7" cx="77.08" cy="175.9" r="14.17"/><circle class="cls-7" cx="96.34" cy="61.56" r="11.34"/><polygon class="cls-8" points="235.67 131 199.44 143.06 194.76 136.63 190.17 130.34 221.33 112.28 214.18 102.45 127.96 141.63 135.11 151.45 179.01 135.88 183.6 142.18 188.28 148.6 149.43 171.11 156.59 180.94 242.83 140.83 235.67 131"/><circle class="cls-7" cx="181.04" cy="144.18" r="8.5"/></svg>